<svg xmlns="http://www.w3.org/2000/svg" width="938.69817" height="810.75394" viewBox="0 0 248.36389 214.51198">
  <g style="fill:#ee903f;fill-opacity:.99607843">
    <path d="m-679.99162 556.50839-.00006-47.02772 40.72718 23.51391zm40.72712-23.51381.00005 47.02771-40.72717-23.5139zm-40.72713 23.51381-.00005-47.02772-40.72717-23.51391.00005 47.02772zm-.00005-47.02772 40.72756-23.51407-40.72716-23.51391-40.72734 23.51394zm-.00035 94.0557 40.72756-23.51407-40.72716-23.51391-40.72735 23.51394z" style="fill:#ee903f;fill-opacity:.99607843;stroke:#000;stroke-width:2;stroke-miterlimit:4;stroke-dasharray:none;stroke-opacity:1;stroke-linejoin:round" transform="translate(804.17354 -437.78405)"/>
  </g>
  <path d="m-739.55062 343.7362.00005 47.0277-40.72716-23.5139-.00006-47.02771z" style="fill:#459db9;fill-opacity:1;stroke:#000;stroke-width:2;stroke-miterlimit:4;stroke-dasharray:none;stroke-opacity:1;stroke-linejoin:round" transform="translate(782.27784 -177.98398)"/>
  <path d="m-739.55068 296.70847.00005 47.02772-40.72716-23.5139-.00006-47.02773z" style="fill:#459db9;fill-opacity:1;stroke:#000;stroke-width:2;stroke-miterlimit:4;stroke-dasharray:none;stroke-opacity:1;stroke-linejoin:round" transform="translate(782.27784 -177.98398)"/>
  <path d="m-698.82334 273.19454-40.72734 23.51393.00005 47.02773 40.72712-23.51382z" style="fill:#459db9;fill-opacity:1;stroke:#000;stroke-width:2;stroke-miterlimit:4;stroke-dasharray:none;stroke-opacity:1;stroke-linejoin:round" transform="translate(782.27784 -177.98398)"/>
  <path d="m-739.55029 249.68049-40.72755 23.51407 40.72716 23.51391 40.72734-23.51393zm40.72717 23.51391-.00005-47.02772-40.72717-23.51391.00005 47.02772z" style="fill:#459db9;fill-opacity:1;stroke:#000;stroke-width:2;stroke-miterlimit:4;stroke-dasharray:none;stroke-opacity:1;stroke-linejoin:round" transform="translate(782.27784 -177.98398)"/>
  <path d="m-170.95199 148.55164 40.72756-23.51407-40.72716-23.51391-40.72734 23.51394z" style="fill:#667b83;fill-opacity:1;stroke:#000;stroke-width:2;stroke-miterlimit:4;stroke-dasharray:none;stroke-opacity:1;stroke-linejoin:round" transform="translate(335.86117 -100.36896)"/>
  <path d="m-130.22483 172.06555 40.72756-23.51407-40.72716-23.51391-40.72734 23.51394zm-40.72717-23.51391.00005 47.02772 40.72712-23.51381z" style="fill:#667b83;fill-opacity:1;stroke:#000;stroke-width:2;stroke-miterlimit:4;stroke-dasharray:none;stroke-opacity:1;stroke-linejoin:round" transform="translate(335.86117 -100.36896)"/>
  <path d="m-130.22504 172.06567-40.72734 23.51394.00005 47.02772 40.72712-23.51381z" style="fill:#667b83;fill-opacity:1;stroke:#000;stroke-width:2;stroke-miterlimit:4;stroke-dasharray:none;stroke-opacity:1;stroke-linejoin:round" transform="translate(335.86117 -100.36896)"/>
</svg>
